# xmcd
#
# Track frame offsets: 
#        150
#        15510
#        35684
#        53187
#        79576
#        93867
#        133286
#        146959
#        174823
#        200335
#        216712
#        241390
#
# Disc length: 3451 seconds
#
# Revision: 0
# Processed by: cddbd v1.5.2PL0 Copyright (c) Steve Scherf et al.
# Submitted via: ExactAudioCopy v1.2
#
DISCID=aa0d790c
DTITLE=Lurrie Bell and The Bell Dynasty - Tribute To Carey Bell
DYEAR=2018
DGENRE=Blues
TTITLE0=Gone To Main Street
TTITLE1=Hard Hearted Woman
TTITLE2=I Got To Go
TTITLE3=Keep Your Eyes On The Prize
TTITLE4=Tomorrow Night
TTITLE5=So Hard To Leave You Alone
TTITLE6=What My Momma Told Me
TTITLE7=Woman In Trouble
TTITLE8=Carey Bell Was A Friend Of Mine
TTITLE9=Break It Up
TTITLE10=Heartaches And Pain
TTITLE11=When I Get Drunk
EXTD=
EXTT0=
EXTT1=
EXTT2=
EXTT3=
EXTT4=
EXTT5=
EXTT6=
EXTT7=
EXTT8=
EXTT9=
EXTT10=
EXTT11=
PLAYORDER=
